<svg width="300" height="300" viewBox="0 0 300 300" fill="none" xmlns="http://www.w3.org/2000/svg">
    <path d="M4 36C4 16.67 19.67 1 39 1H68C117.706 1 158 41.2944 158 91V299H39C19.67 299 4 283.33 4 264V36Z" fill="white"/>
    <path d="M297 35C297 15.67 281.33 0 262 0H233C183.294 0 143 40.2944 143 90V300H262C281.33 300 297 284.33 297 265V35Z" fill="white"/>
    <path d="M43 14H64C110.944 14 149 52.0558 149 99V286H43C26.4315 286 13 272.569 13 256V44C13 27.4315 26.4315 14 43 14Z" fill="white" stroke="black" stroke-width="10"/>
    <path d="M43 208H66C110.161 208 146.267 242.488 148.852 286H43C26.4315 286 13 272.569 13 256V238C13 221.431 26.4315 208 43 208Z" fill="#363636" stroke="black" stroke-width="10"/>
    <path d="M154 146.194C154 176.56 154 228.3 75.9021 171.675C37.5831 143.892 40.3843 73.8626 15 56.0739C15 25.7078 46.7262 22.2879 93.2423 56.0754C135.852 87.0252 154 115.828 154 146.194Z" fill="#006D21"/>
    <path d="M287 55.5H178C162.812 55.5 150.5 67.8122 150.5 83V245.5H287C288.381 245.5 289.5 244.381 289.5 243V58C289.5 56.6193 288.381 55.5 287 55.5Z" fill="white" stroke="black" stroke-width="5"/>
    <path d="M257 14H238C191.056 14 153 52.0558 153 99V286H257C273.569 286 287 272.569 287 256V44C287 27.4315 273.569 14 257 14Z" fill="white" stroke="black" stroke-width="10"/>
    <path d="M257 208H236C191.839 208 155.733 242.488 153.148 286H257C273.569 286 287 272.569 287 256V238C287 221.431 273.569 208 257 208Z" fill="#363636" stroke="black" stroke-width="10"/>
    <path d="M148 146.194C148 176.56 148 228.3 225.536 171.675C263.579 143.892 260.798 73.8626 286 56.0739C286 25.7078 254.502 22.2879 208.321 56.0754C166.018 87.0252 148 115.828 148 146.194Z" fill="#006D21"/>
    <line x1="151.5" y1="240" x2="151.5" y2="82" stroke="black" stroke-width="13"/>
</svg>
